<svg width="40" height="36" viewBox="0 0 40 36" fill="none" xmlns="http://www.w3.org/2000/svg">
<path id="Vector" d="M33.3333 13.5H25.3965L18.0978 0.566719C18.0005 0.394529 17.86 0.251431 17.6905 0.151912C17.5209 0.0523934 17.3285 -1.24402e-05 17.1325 2.21507e-09H12.5839C11.8457 2.21507e-09 11.3131 0.715078 11.5158 1.43367L14.9207 13.5H7.77763L4.77762 9.45C4.56789 9.16664 4.23803 9 3.88872 9H1.11163C0.388707 9 -0.141851 9.68766 0.0338438 10.3978L2.22205 18L0.0338438 25.6022C-0.141851 26.3123 0.388707 27 1.11163 27H3.88872C4.23872 27 4.56789 26.8334 4.77762 26.55L7.77763 22.5H14.9207L11.5158 34.5656C11.3131 35.2842 11.8457 36 12.5839 36H17.1325C17.5311 36 17.8992 35.7834 18.0971 35.4333L25.3965 22.5H33.3333C35.7882 22.5 40 20.4855 40 18C40 15.5145 35.7882 13.5 33.3333 13.5Z" fill="white"/>
</svg>
