<svg width="42" height="42" viewBox="0 0 42 42" fill="none" xmlns="http://www.w3.org/2000/svg">
<g id="Slider__Arrow">
<path id="Vector" d="M24.2023 33.25C23.9409 33.2509 23.6825 33.1932 23.4463 33.0811C23.2101 32.9691 23.002 32.8055 22.8373 32.6025L14.3848 22.1025C14.1274 21.7894 13.9867 21.3966 13.9867 20.9912C13.9867 20.5859 14.1274 20.1931 14.3848 19.88L23.1348 9.37999C23.4318 9.02262 23.8587 8.79787 24.3214 8.75521C24.7842 8.71254 25.2449 8.85545 25.6023 9.15249C25.9597 9.44954 26.1844 9.87638 26.2271 10.3391C26.2697 10.8019 26.1268 11.2626 25.8298 11.62L18.0073 21L25.5673 30.38C25.7813 30.6369 25.9172 30.9497 25.959 31.2814C26.0008 31.6131 25.9467 31.9498 25.8031 32.2518C25.6595 32.5537 25.4324 32.8081 25.1487 32.9851C24.865 33.162 24.5366 33.2539 24.2023 33.25Z" fill="white"/>
</g>
</svg>
