<svg width="48" height="48" viewBox="0 0 48 48" fill="none" xmlns="http://www.w3.org/2000/svg">
<g id="Youtube__Icon">
<path id="Vector" d="M40.8 0H7.2C3.22355 0 0 3.22355 0 7.2V40.8C0 44.7765 3.22355 48 7.2 48H40.8C44.7765 48 48 44.7765 48 40.8V7.2C48 3.22355 44.7765 0 40.8 0Z" fill="#ED1D24"/>
<path id="Vector_2" d="M40.0312 15.8438C39.6562 14.4375 38.4375 13.3125 37.0312 12.9375C33.8437 12.0938 14.625 12 10.9687 12.9375C9.56247 13.3125 8.34372 14.4375 7.96872 15.8438C7.12497 19.4063 7.03122 28.5 7.96872 32.1563C8.34372 33.5625 9.56247 34.6875 10.9687 35.0625C14.3437 36 33.5625 36 37.0312 35.0625C38.4375 34.6875 39.6562 33.5625 40.0312 32.1563C40.875 28.7813 40.875 19.3125 40.0312 15.8438Z" fill="white"/>
<path id="Vector_3" d="M20.625 19.0312V28.9688L29.3438 24" fill="#ED1D24"/>
</g>
</svg>
