<svg width="20" height="20" viewBox="0 0 20 20" fill="none" xmlns="http://www.w3.org/2000/svg">
<path d="M4.77291 8.00471L4.77384 7.9892L4.77381 7.97367C4.77366 7.89578 4.80078 7.82031 4.85048 7.76034C4.87844 7.72663 4.91278 7.69876 4.95153 7.67833C4.99031 7.65788 5.03275 7.64528 5.07641 7.64125C5.12006 7.63723 5.16409 7.64186 5.20596 7.65487C5.24776 7.66787 5.2866 7.68897 5.32024 7.71697C5.32029 7.71701 5.32035 7.71706 5.3204 7.7171L9.78649 11.45L10.1011 11.7129L10.4206 11.4559L14.8956 7.8559L14.8956 7.8559L14.8973 7.85445C14.9314 7.82676 14.9707 7.80608 15.0128 7.79361C15.0549 7.78113 15.0991 7.7771 15.1427 7.78175C15.1864 7.78639 15.2287 7.79962 15.2673 7.82068C15.3058 7.84174 15.3398 7.87021 15.3673 7.90445L15.3744 7.91319L15.3818 7.9216C15.4121 7.95609 15.435 7.99648 15.449 8.04023C15.463 8.08398 15.4678 8.13016 15.4631 8.17586C15.4584 8.22156 15.4443 8.26579 15.4217 8.30578C15.3991 8.34578 15.3685 8.38067 15.3318 8.40827L15.3251 8.41327L15.3186 8.4185L10.3186 12.4435L10.3186 12.4435L10.3146 12.4467C10.255 12.4958 10.1802 12.5226 10.103 12.5226C10.0262 12.5226 9.95177 12.496 9.89229 12.4475C9.89196 12.4473 9.89164 12.447 9.89131 12.4467L4.89391 8.2822L4.89291 8.28137C4.85257 8.24794 4.82068 8.20546 4.79983 8.15739C4.77898 8.10931 4.76976 8.05701 4.77291 8.00471Z" stroke="black"/>
</svg>
