<svg width="18" height="38" viewBox="0 0 18 38" fill="none" xmlns="http://www.w3.org/2000/svg">
<path d="M2.98662 0.00018692C3.37084 -0.00119019 3.75048 0.088295 4.09763 0.262074C4.44478 0.435848 4.75063 0.689499 4.99269 1.00438L17.4149 17.2886C17.7932 17.7742 18 18.3833 18 19.012C18 19.6406 17.7932 20.2497 17.4149 20.7354L4.55547 37.0196C4.11892 37.5738 3.49161 37.9223 2.81153 37.9885C2.13145 38.0547 1.45432 37.8331 0.929102 37.3724C0.403877 36.9117 0.0735855 36.2497 0.0108833 35.5321C-0.0518188 34.8144 0.158205 34.0998 0.594755 33.5456L12.0911 18.9984L0.980539 4.45119C0.66604 4.05281 0.466265 3.56771 0.404848 3.05327C0.343433 2.53883 0.422947 2.01658 0.633987 1.54834C0.845026 1.08009 1.17875 0.685444 1.59568 0.411079C2.01261 0.136719 2.4953 -0.00587082 2.98662 0.00018692Z" fill="white"/>
</svg>
