<svg width="40" height="40" viewBox="0 0 40 40" fill="none" xmlns="http://www.w3.org/2000/svg">
<path id="Vector" d="M38.125 10H37.5V6.25C37.5 2.75 29.75 0 20 0C10.25 0 2.5 2.75 2.5 6.25V10H1.875C0.839844 10 0 10.8391 0 11.875V18.125C0 19.1602 0.839844 20 1.875 20H2.5V32.5C2.5 33.8805 3.61953 35 5 35V37.5C5 38.8805 6.11953 40 7.5 40H10C11.3805 40 12.5 38.8805 12.5 37.5V35H27.5V37.5C27.5 38.8805 28.6195 40 30 40H32.5C33.8805 40 35 38.8805 35 37.5V35H35.5C36.75 35 37.5 34 37.5 33V20H38.125C39.1602 20 40 19.1602 40 18.125V11.875C40 10.8391 39.1602 10 38.125 10ZM8.75 31.25C7.36953 31.25 6.25 30.1305 6.25 28.75C6.25 27.3695 7.36953 26.25 8.75 26.25C10.1305 26.25 11.25 27.3695 11.25 28.75C11.25 30.1305 10.1305 31.25 8.75 31.25ZM10 22.5C8.61953 22.5 7.5 21.3805 7.5 20V10C7.5 8.61953 8.61953 7.5 10 7.5H30C31.3805 7.5 32.5 8.61953 32.5 10V20C32.5 21.3805 31.3805 22.5 30 22.5H10ZM31.25 31.25C29.8695 31.25 28.75 30.1305 28.75 28.75C28.75 27.3695 29.8695 26.25 31.25 26.25C32.6305 26.25 33.75 27.3695 33.75 28.75C33.75 30.1305 32.6305 31.25 31.25 31.25Z" fill="white"/>
</svg>
