<svg width="48" height="48" viewBox="0 0 48 48" fill="none" xmlns="http://www.w3.org/2000/svg">
<g id="Facebook__Icon">
<path id="Vector" d="M40.8 0H7.2C3.22355 0 0 3.22355 0 7.2V40.8C0 44.7765 3.22355 48 7.2 48H40.8C44.7765 48 48 44.7765 48 40.8V7.2C48 3.22355 44.7765 0 40.8 0Z" fill="#1877F2"/>
<path id="Vector_2" d="M33.3375 30.9375L34.4062 24H27.75V19.5C27.75 17.6062 28.6781 15.75 31.6594 15.75H34.6875V9.84375C34.6875 9.84375 31.9406 9.375 29.3156 9.375C23.8313 9.375 20.25 12.6938 20.25 18.7125V24H14.1562V30.9375H20.25V48H27.75V30.9375H33.3375Z" fill="white"/>
</g>
</svg>
