<svg width="40" height="38" viewBox="0 0 40 38" fill="none" xmlns="http://www.w3.org/2000/svg">
<path id="Vector" d="M38.8889 4.75C39.5028 4.75 40 4.21859 40 3.5625V1.1875C40 0.531406 39.5028 0 38.8889 0H1.11111C0.497222 0 0 0.531406 0 1.1875V3.5625C0 4.21859 0.497222 4.75 1.11111 4.75H2.22083V33.25H1.11111C0.497222 33.25 0 33.7814 0 34.4375V36.8125C0 37.4686 0.497222 38 1.11111 38H17.7778V32.0625C17.7778 31.4094 18.2778 30.875 18.8889 30.875H21.1111C21.7222 30.875 22.2222 31.4094 22.2222 32.0625V38H38.8889C39.5028 38 40 37.4686 40 36.8125V34.4375C40 33.7814 39.5028 33.25 38.8889 33.25H37.7778V4.75H38.8889ZM17.7778 8.075C17.7778 7.6 18.2222 7.125 18.6667 7.125H21.3333C21.7778 7.125 22.2222 7.6 22.2222 8.075V10.925C22.2222 11.4 21.7778 11.875 21.3333 11.875H18.6667C18.2222 11.875 17.7778 11.4 17.7778 10.925V8.075ZM17.7778 15.2C17.7778 14.725 18.2222 14.25 18.6667 14.25H21.3333C21.7778 14.25 22.2222 14.725 22.2222 15.2V18.05C22.2222 18.525 21.7778 19 21.3333 19H18.6667C18.2222 19 17.7778 18.525 17.7778 18.05V15.2ZM8.88889 8.075C8.88889 7.6 9.33333 7.125 9.77778 7.125H12.4444C12.8889 7.125 13.3333 7.6 13.3333 8.075V10.925C13.3333 11.4 12.8889 11.875 12.4444 11.875H9.77778C9.33333 11.875 8.88889 11.4 8.88889 10.925V8.075ZM12.4444 19H9.77778C9.33333 19 8.88889 18.525 8.88889 18.05V15.2C8.88889 14.725 9.33333 14.25 9.77778 14.25H12.4444C12.8889 14.25 13.3333 14.725 13.3333 15.2V18.05C13.3333 18.525 12.8889 19 12.4444 19ZM13.3333 28.5C13.3333 24.5649 16.3181 21.375 20 21.375C23.6819 21.375 26.6667 24.5649 26.6667 28.5H13.3333ZM31.1111 18.05C31.1111 18.525 30.6667 19 30.2222 19H27.5556C27.1111 19 26.6667 18.525 26.6667 18.05V15.2C26.6667 14.725 27.1111 14.25 27.5556 14.25H30.2222C30.6667 14.25 31.1111 14.725 31.1111 15.2V18.05ZM31.1111 10.925C31.1111 11.4 30.6667 11.875 30.2222 11.875H27.5556C27.1111 11.875 26.6667 11.4 26.6667 10.925V8.075C26.6667 7.6 27.1111 7.125 27.5556 7.125H30.2222C30.6667 7.125 31.1111 7.6 31.1111 8.075V10.925Z" fill="#1758A5"/>
</svg>
