<svg width="42" height="42" viewBox="0 0 42 42" fill="none" xmlns="http://www.w3.org/2000/svg">
<g id="Slider__Arrow">
<path id="Vector" d="M16.7858 31.6836L16.8274 31.6861C16.8914 31.6899 16.9554 31.6787 17.0142 31.6532L17.5483 32.8845L17.0142 31.6532C17.073 31.6276 17.125 31.5886 17.1659 31.5393L17.1681 31.5366L25.9142 21.0413C25.973 20.9687 26.0051 20.8781 26.0051 20.7846C26.0051 20.6902 25.9723 20.5987 25.9123 20.5257L25.9036 20.5151L25.9037 20.5151L17.4512 10.0151L17.4372 9.99764L17.4237 9.97976C17.39 9.93483 17.3473 9.89737 17.2983 9.86973C17.2494 9.84208 17.1953 9.82484 17.1394 9.8191C17.0835 9.81336 17.027 9.81923 16.9735 9.83635C16.92 9.85347 16.8706 9.88147 16.8284 9.91859L16.8058 9.93847L16.7823 9.95731C16.7404 9.99096 16.7056 10.0326 16.6799 10.0797C16.6541 10.1269 16.6379 10.1786 16.6322 10.2321C16.6265 10.2855 16.6315 10.3395 16.6467 10.391C16.662 10.4426 16.6873 10.4905 16.7212 10.5323L16.7251 10.5371L16.7251 10.5371L24.2851 19.9346L24.975 20.7922L24.2691 21.6367L16.4304 31.0151C16.4303 31.0153 16.4301 31.0154 16.43 31.0156C16.3959 31.0567 16.3701 31.1041 16.3543 31.1551C16.3383 31.2064 16.3327 31.2602 16.3376 31.3136C16.3425 31.367 16.3579 31.4189 16.383 31.4664C16.4079 31.5137 16.442 31.5557 16.4831 31.5899L16.7858 31.6836ZM16.7858 31.6836L16.7441 31.6837M16.7858 31.6836L16.7441 31.6837M16.7441 31.6837C16.6489 31.6839 16.5567 31.6508 16.4834 31.5901L16.7441 31.6837Z" stroke="white" stroke-width="2.68446"/>
</g>
</svg>
