<svg width="40" height="38" viewBox="0 0 40 38" fill="none" xmlns="http://www.w3.org/2000/svg">
<path id="Vector" d="M36.0938 17.782L34.375 10.5857C33.625 7.6 31.125 5.42857 28.375 5.42857H27.5V2.71429C27.5 1.21549 26.3805 0 25 0H15C13.6195 0 12.5 1.21549 12.5 2.71429V5.42857H11.625C8.875 5.42857 6.375 7.6 5.625 10.5857L3.90625 17.782C1.67266 18.3248 0 20.4818 0 23.0714V27.1429C0 29.1472 1.01172 30.8784 2.5 31.8182V35.2857C2.5 36.7845 3.61953 38 5 38H7.5C8.88047 38 10 36.7845 10 35.2857V32.5714H30V35.2857C30 36.7845 31.1195 38 32.5 38H35C36.3805 38 37.5 36.7845 37.5 35.2857V31.8182C38.9883 30.8775 40 29.1463 40 27.1429V23.0714C40 20.4818 38.3273 18.3248 36.0938 17.782ZM7.5 27.1429C6.11953 27.1429 5 25.9274 5 24.4286C5 22.9298 6.11953 21.7143 7.5 21.7143C8.88047 21.7143 10 22.9298 10 24.4286C10 25.9274 8.88047 27.1429 7.5 27.1429ZM9.10547 17.6429L10.4492 12.0141C10.6234 11.322 11.1984 10.8571 11.6258 10.8571H28.3758C28.8031 10.8571 29.3781 11.322 29.5359 11.9479L30.8945 17.6429H9.10547ZM32.5 27.1429C31.1195 27.1429 30 25.9274 30 24.4286C30 22.9298 31.1195 21.7143 32.5 21.7143C33.8805 21.7143 35 22.9298 35 24.4286C35 25.9274 33.8805 27.1429 32.5 27.1429Z" fill="white"/>
</svg>
